<svg width="182" height="149" viewBox="0 0 182 149" fill="none" xmlns="http://www.w3.org/2000/svg">
<path opacity="0.45" fill-rule="evenodd" clip-rule="evenodd" d="M115.883 4.5069C104.045 13.1147 102.492 25.289 105.892 36.2371C115.738 56.8989 144.98 57.2761 155.91 36.8809C160.57 28.1856 159.336 16.2902 150.816 7.73844C144.98 1.88096 140.077 0 130.642 0C123.166 0 121.857 2.05046 115.883 4.5069ZM123.063 5.86431C103.228 14.6526 104.412 39.6504 124.992 46.5563C134.33 49.6908 146.312 44.566 151.387 35.2679C154.058 30.3728 153.942 21.6775 151.13 16.0551C146.603 7.0071 132.248 1.79484 123.063 5.86431ZM42.4587 28.2663C40.0714 28.6449 34.6028 31.4923 30.6914 35.2214C25.4924 40.1767 24.5934 43.1622 23.8335 47.6909C21.4505 61.8965 27.2589 72.3279 40.708 77.9994C63.3894 87.5641 87.1305 63.4207 75.7188 42.3939C69.628 31.1711 57.2513 25.9137 42.4587 28.2663ZM42.9978 33.6754C36.2402 36.5255 33.116 39.377 30.6914 44.9078C25.8451 55.968 30.4763 67.9454 41.4435 72.7079C57.7144 79.7751 74.457 68.5496 72.7608 51.7112C71.9536 43.713 68.392 38.5049 61.4825 35.2214C54.1758 31.7507 48.6585 31.2886 42.9978 33.6754ZM109.524 57.339C98.6956 59.805 85.5318 70.1708 84.3245 77.1847C83.6563 81.056 88.3707 81.6 89.6368 77.7985C91.8649 71.1044 104.382 62.8274 112.133 62.9204C114.049 62.9436 118.577 65.7992 123.055 69.8085L130.704 76.6584L136.279 71.8576C139.344 69.2167 143.161 65.8088 144.76 64.2846C148.327 60.8836 148.741 60.8781 156.695 64.1288C164.129 67.1675 168.257 70.9746 172.373 78.5941C174.792 83.0682 175.453 87.4507 176.034 102.858C176.58 117.334 177.185 121.661 178.666 121.661C181.652 121.661 182.545 115.665 181.693 101.332C180.516 81.5235 178.575 75.9039 170.008 67.5175C164.224 61.8528 160.982 59.9035 154.28 58.0622L145.839 55.7424L139.413 62.0455C135.879 65.5122 132.244 68.3486 131.335 68.3486C130.424 68.3486 126.519 65.5805 122.653 62.1972C118.788 58.814 115.253 56.1088 114.799 56.1853C114.344 56.2632 111.97 56.7813 109.524 57.339ZM156.556 83.6587C154.444 85.6723 154.233 104.936 156.266 110.034C158.982 116.843 160.57 112.023 160.57 96.9744C160.57 82.2849 159.995 80.3793 156.556 83.6587ZM26.4502 86.2819C7.24573 91.8264 0.0322362 104.765 0.000692338 133.721C-0.0150796 147.731 0.221498 149.157 2.49265 148.744C4.68638 148.344 5.10219 145.967 5.80188 129.847C6.66791 109.885 8.22789 104.605 15.2335 97.9244C19.7772 93.5939 27.3463 90.2202 32.5195 90.2202C34.4494 90.2202 38.8426 92.0656 42.2809 94.3211C49.85 99.2859 51.1978 99.3516 57.8019 95.0784C67.9102 88.5388 68.0034 88.5265 76.7095 92.4566C90.953 98.8854 94.4874 106.182 95.6573 131.571C96.2739 144.955 96.9119 149 98.406 149C99.9459 149 100.347 145.23 100.336 130.888C100.323 114.454 99.9903 112.094 96.7399 105.437C90.8641 93.4066 82.7731 87.1882 70.57 85.3278C65.8814 84.6129 63.8784 85.1091 58.9805 88.1984C52.1054 92.5372 47.0885 92.231 39.7058 87.0228L35.1118 83.7817L26.4502 86.2819ZM100.35 87.3304C100.35 89.4998 101.314 93.0361 102.492 95.1905C104.62 99.0809 104.634 99.0549 104.643 91.2454C104.65 85.1665 104.164 83.3853 102.501 83.3853C101.086 83.3853 100.35 84.7345 100.35 87.3304ZM20.7178 112.423C20.2905 113.481 20.1299 120.145 20.3579 127.231C20.692 137.595 21.1938 140.115 22.9244 140.115C24.6981 140.115 25.0752 137.621 25.0752 125.875C25.0752 115.702 24.5633 111.474 23.2843 111.067C22.2979 110.753 21.1437 111.363 20.7178 112.423ZM75.9754 125.761C75.9754 138.216 76.3454 140.798 78.1261 140.798C79.7363 140.798 80.3328 138.994 80.502 133.622C80.6253 129.675 80.8762 124.6 81.0597 122.344C81.5687 116.068 80.1378 110.725 77.9469 110.725C76.3941 110.725 75.9754 113.914 75.9754 125.761Z" fill="#003E9B"/>
</svg>
