<svg width="19" height="19" viewBox="0 0 19 19" fill="none" xmlns="http://www.w3.org/2000/svg">
<path fill-rule="evenodd" clip-rule="evenodd" d="M7.74372 1.36795C6.46667 2.11936 4.20232 3.44986 2.71173 4.32465L0.00164885 5.91519L0.000805244 9.86349L0 13.8118L0.103724 13.8641C0.160781 13.8928 1.36432 14.4708 2.77829 15.1484C7.20738 17.2708 8.24523 17.7687 8.86957 18.0706C9.20298 18.2319 9.49758 18.3638 9.5242 18.3638C9.55085 18.3638 9.93944 18.1077 10.3878 17.7948L11.203 17.2258L11.403 17.4873C12.1238 18.43 13.2599 19 14.4178 19C16.2834 19 17.7891 17.6846 18.3 15.6082C18.3627 15.3532 18.379 15.1561 18.3808 14.6313C18.3834 13.8771 18.3139 13.4769 18.0718 12.8536C17.9951 12.656 17.9482 12.4879 17.9677 12.4801C17.9871 12.4722 18.2273 12.3064 18.5015 12.1116L19 11.7574V7.80076V3.8441L18.0797 3.4468C17.5736 3.22824 16.3139 2.68029 15.2805 2.22909C12.1023 0.841333 10.1441 -0.00186314 10.1039 3.09143e-06C10.0828 0.00102103 9.02076 0.61658 7.74372 1.36795ZM9.90757 0.863558C9.7836 0.938462 9.32841 1.20677 8.89606 1.45982C8.46372 1.71282 8.02371 1.97155 7.91826 2.03474C7.81282 2.09794 7.14849 2.48892 6.44198 2.90356C5.73547 3.31824 4.64839 3.95734 4.02624 4.32384C3.40409 4.69035 2.51364 5.21327 2.04748 5.48591C1.58128 5.75855 1.16899 6.00659 1.13126 6.03713C1.07117 6.08569 1.26109 6.1804 2.66173 6.80012C3.54121 7.18927 4.28135 7.49423 4.30646 7.47781C4.33162 7.46136 5.72397 6.50899 7.40061 5.36138C9.07724 4.21378 10.8977 2.96854 11.446 2.59423C11.9943 2.21988 12.4767 1.88638 12.518 1.85308C12.5867 1.79761 12.51 1.75634 11.5977 1.35794C11.0503 1.11889 10.4968 0.879209 10.3677 0.825343L10.133 0.727366L9.90757 0.863558ZM12.4046 2.72987C11.3753 3.44006 8.22031 5.60111 6.33722 6.88588C5.61526 7.37844 5.02428 7.79253 5.0239 7.80606C5.02309 7.83418 5.74502 8.15636 5.80702 8.15555C5.82934 8.15526 6.53784 7.68212 7.38143 7.10414C8.22503 6.52617 9.53643 5.62817 10.2957 5.10859C13.4545 2.94691 14.0918 2.50508 14.0918 2.477C14.0918 2.45062 13.3595 2.11741 13.3077 2.12025C13.2961 2.12089 12.8897 2.39522 12.4046 2.72987ZM14.2452 3.19486C13.6783 3.58609 9.26077 6.61596 7.44792 7.857C6.93613 8.20734 6.522 8.4989 6.52764 8.50492C6.5531 8.53215 9.438 9.7961 9.47469 9.7961C9.5227 9.7961 17.9839 4.18676 17.9838 4.15504C17.9837 4.12781 15.0008 2.82904 14.8977 2.81131C14.8516 2.80338 14.5882 2.95819 14.2452 3.19486ZM14.0918 7.5433L9.83552 10.3731L9.8257 13.8595C9.8203 15.777 9.82494 17.3458 9.83602 17.3458C9.87643 17.3458 10.8517 16.6525 10.8517 16.6237C10.8517 16.6074 10.8012 16.4587 10.7396 16.2934C10.5138 15.6878 10.451 15.313 10.454 14.5889C10.4563 14.0243 10.4705 13.8739 10.5548 13.5235C11.3707 10.1317 15.1991 9.0583 17.3434 11.6201L17.5954 11.9212L18.0005 11.6399L18.4057 11.3586V8.03247C18.4057 6.20314 18.3927 4.70799 18.3769 4.70994C18.3611 4.71189 16.4328 5.98691 14.0918 7.5433ZM0.622878 9.99459L0.632694 13.3654L4.90817 15.4143L9.18365 17.4632L9.19347 13.9607C9.19888 12.0343 9.19025 10.4443 9.1743 10.4273C9.15317 10.4047 7.13223 9.49907 6.18315 9.0868C6.14569 9.07051 6.13522 9.27376 6.13522 10.0191C6.13522 10.9191 6.13081 10.9785 6.05573 11.084C5.99974 11.1628 5.94031 11.1958 5.85442 11.1959C5.69179 11.196 4.18376 10.5255 4.07417 10.4043C3.98916 10.3103 3.98789 10.293 3.98789 9.21129V8.11361L3.59485 7.94102C3.37866 7.84606 2.61935 7.51086 1.90744 7.1961L0.613062 6.62385L0.622878 9.99459ZM4.61016 9.18614L4.62059 9.9739L5.04069 10.1607C5.27176 10.2634 5.47488 10.3475 5.49209 10.3475C5.50935 10.3475 5.5187 9.99935 5.51299 9.5738L5.50252 8.80017L5.10956 8.62406C4.89345 8.52723 4.69033 8.43684 4.65816 8.42319C4.60686 8.40139 4.60099 8.49474 4.61016 9.18614ZM14.1493 10.8828C12.7418 11.0528 11.661 11.9964 11.216 13.4436C10.6821 15.1797 11.4319 17.1294 12.9523 17.9589C13.4472 18.2289 13.7514 18.2997 14.4178 18.2998C14.9209 18.2999 15.0579 18.2853 15.3109 18.2043C16.8405 17.7144 17.8633 16.1466 17.78 14.4193C17.7006 12.7721 16.6368 11.3497 15.2118 10.9857C14.8877 10.9029 14.3858 10.8542 14.1493 10.8828ZM0.920513 11.5494L0.920781 11.8532L1.66065 12.1819C2.06757 12.3627 2.41256 12.5106 2.42728 12.5106C2.44201 12.5106 2.45409 12.3791 2.45409 12.2183V11.9261L1.68718 11.5859L0.920283 11.2456L0.920513 11.5494ZM13.4429 12.5074L12.4622 13.5928L13.4399 14.6737L14.4176 15.7545L14.6382 15.5082L14.8587 15.2619L14.2536 14.6179C13.9208 14.2637 13.649 13.9596 13.6497 13.9421C13.6515 13.892 14.7366 13.905 14.9623 13.9579C15.2253 14.0194 15.3462 14.09 15.5592 14.3062C16.2291 14.986 15.9634 16.2762 15.0947 16.5616C14.9455 16.6106 14.6756 16.6248 13.8931 16.6248H12.884V16.9853V17.3458L13.7947 17.345C14.8836 17.344 15.1483 17.3084 15.5224 17.1126C16.5197 16.5907 16.8685 15.2141 16.2651 14.1815C16.0757 13.8574 15.8473 13.6391 15.5106 13.4606C15.1805 13.2855 14.8752 13.2336 14.169 13.2325L13.6326 13.2317L14.2347 12.5636L14.8368 11.8956L14.6302 11.6588L14.4236 11.422L13.4429 12.5074ZM0.920666 12.6064L0.921049 12.9135L1.62046 13.2196C2.00514 13.3879 2.35086 13.5382 2.38875 13.5536C2.45163 13.5791 2.45666 13.5548 2.44626 13.2751L2.43491 12.9686L1.84057 12.7056C1.51367 12.561 1.17286 12.4103 1.08325 12.3709L0.920283 12.2992L0.920666 12.6064Z" fill="#003E9B"/>
</svg>
