<svg width="25" height="19" viewBox="0 0 25 19" fill="none" xmlns="http://www.w3.org/2000/svg">
<path fill-rule="evenodd" clip-rule="evenodd" d="M0.140422 5.95016C0.0169043 9.22294 -0.035103 12.866 0.0250306 14.0463C0.120594 15.9273 0.224284 16.2074 0.865276 16.3171C1.70715 16.4603 1.84367 15.8118 1.07981 15.2987C0.623441 14.9921 0.590612 14.127 0.799617 7.86591L1.03625 0.780349H8.30495H15.5736V6.0477V11.3151H16.7113H17.849V7.80349V4.29192H20.0739C22.5511 4.29192 22.9753 4.60991 23.85 7.12224C24.4221 8.76566 24.5264 13.7018 24.0135 14.8524C23.7801 15.3756 23.3315 15.607 22.5508 15.607C21.9312 15.607 21.4245 15.7825 21.4245 15.9971C21.4245 16.2117 22.0593 16.3873 22.8349 16.3873C24.6405 16.3873 25 15.5477 25 11.3291C25 8.02042 24.3684 5.62865 23.0604 3.98329C22.4214 3.17992 22.0983 3.1011 19.8555 3.20294L17.3614 3.31648L17.2678 6.92559C17.194 9.78128 17.0754 10.5347 16.699 10.5347C16.3053 10.5347 16.2237 9.62911 16.2237 5.26735V0H8.29422H0.365029L0.140422 5.95016ZM18.632 5.21936C18.5374 5.51472 18.5056 6.61228 18.5608 7.65795L18.6616 9.55927L20.9047 9.67593C22.1383 9.74031 23.2607 9.65252 23.3985 9.48084C23.7261 9.07389 22.946 6.40276 22.2176 5.43669C21.5272 4.52095 18.906 4.36215 18.632 5.21936ZM19.2772 6.01493C19.18 6.31848 19.1482 7.06489 19.206 7.67317C19.3058 8.71688 19.4098 8.78555 21.0582 8.8987L22.8043 9.0181L22.5768 7.92327C22.4513 7.32084 22.1181 6.52059 21.8363 6.14524C21.2213 5.32588 19.5252 5.23926 19.2772 6.01493ZM19.1492 12.0954C19.1492 12.31 19.4417 12.4856 19.7993 12.4856C20.1568 12.4856 20.4493 12.31 20.4493 12.0954C20.4493 11.8808 20.1568 11.7052 19.7993 11.7052C19.4417 11.7052 19.1492 11.8808 19.1492 12.0954ZM15.0116 12.9433C14.8052 13.2421 14.4851 13.9636 14.3004 14.5469C13.9695 15.5914 13.9218 15.607 11.0503 15.607C9.44749 15.607 8.04556 15.7825 7.93504 15.9971C7.806 16.2476 8.93554 16.3873 11.0896 16.3873H14.4451L15.0243 14.7825C15.6419 13.0712 15.6348 12.0419 15.0116 12.9433ZM3.1068 13.8325C1.7403 15.3526 1.97889 17.5598 3.61972 18.5785C6.12908 20.1361 8.34168 16.2551 6.32444 13.8336C5.31029 12.6159 4.20058 12.6155 3.1068 13.8325ZM16.3502 13.7895C14.1399 16.0717 16.6125 20.4365 19.0357 18.5305C20.7841 17.1552 20.7367 14.294 18.9493 13.3166C17.7885 12.6818 17.3448 12.7626 16.3502 13.7895ZM3.38439 15.2168C2.94558 16.8766 3.81475 18.0179 5.23813 17.6503C5.90415 17.4786 6.26853 16.2906 5.98476 15.2168C5.83232 14.6401 5.49297 14.4364 4.68458 14.4364C3.87618 14.4364 3.53684 14.6401 3.38439 15.2168ZM16.6284 14.8871C15.6998 16.0018 16.6291 17.6913 18.0586 17.4864C19.1674 17.3276 19.7684 16.2562 19.2772 15.3143C18.8446 14.4848 17.1865 14.2172 16.6284 14.8871Z" fill="#003E9B"/>
</svg>
