<svg width="30" height="34" viewBox="0 0 30 34" fill="none" xmlns="http://www.w3.org/2000/svg">
<path fill-rule="evenodd" clip-rule="evenodd" d="M14.5588 7.225C14.5588 7.6925 14.7573 8.075 14.9999 8.075C15.2426 8.075 15.4411 7.6925 15.4411 7.225C15.4411 6.7575 15.2426 6.375 14.9999 6.375C14.7573 6.375 14.5588 6.7575 14.5588 7.225ZM9.92906 8.50255C10.3694 8.97175 10.8255 9.26288 10.9424 9.15025C11.2389 8.86465 10.1386 7.65 9.58362 7.65C9.33303 7.65 9.48833 8.03378 9.92906 8.50255ZM19.4999 8.16C18.667 8.9624 18.881 9.42607 19.8529 8.925C20.3382 8.67467 20.7352 8.28537 20.7352 8.06012C20.7352 7.497 20.1379 7.54545 19.4999 8.16ZM6.81789 11.1605C6.69656 11.4652 6.65112 15.2469 6.71774 19.5636L6.83818 27.4125L10.147 27.4461L13.4558 27.4792L10.4779 27.3203L7.49995 27.1613V19.1054V11.05H14.9999H22.4999V17.1874C22.4999 20.9262 22.6769 23.4302 22.9526 23.5943C23.257 23.7753 23.3655 21.7247 23.2835 17.3506L23.1617 10.8375L15.1001 10.7215C8.79039 10.6309 6.99083 10.7262 6.81789 11.1605ZM8.82348 15.3V17.85H14.9999H21.1764V15.3V12.75H14.9999H8.82348V15.3ZM9.70583 15.3V17.425H14.9999H20.2941V15.3V13.175H14.9999H9.70583V15.3ZM11.1507 15.3C11.1944 15.8559 11.5332 16.15 12.1319 16.15C12.7522 16.15 13.046 15.8767 13.046 15.3C13.046 14.705 12.7522 14.45 12.0652 14.45C11.3563 14.45 11.1026 14.6854 11.1507 15.3ZM14.1176 15.3C14.1176 15.8665 14.4119 16.15 14.9999 16.15C15.588 16.15 15.8823 15.8665 15.8823 15.3C15.8823 14.7335 15.588 14.45 14.9999 14.45C14.4119 14.45 14.1176 14.7335 14.1176 15.3ZM17.2058 15.3C17.2058 15.8665 17.5001 16.15 18.0882 16.15C18.6763 16.15 18.9705 15.8665 18.9705 15.3C18.9705 14.7335 18.6763 14.45 18.0882 14.45C17.5001 14.45 17.2058 14.7335 17.2058 15.3ZM17.0841 20.0319C16.4845 20.3554 16.3235 21.0328 16.3235 23.2284C16.3235 25.5803 16.1514 26.2114 15.2205 27.2773C13.9813 28.6964 13.8542 29.8873 14.7749 31.45C15.363 32.4479 15.3855 32.382 15.1504 30.3735C14.9558 28.7122 15.0586 28.107 15.6114 27.6649C16.2366 27.1656 16.3235 27.2353 16.3235 28.2357C16.3235 28.8872 16.5123 29.2625 16.7647 29.1125C17.0082 28.9676 17.2058 27.0623 17.2058 24.8625C17.2058 22.3954 17.3929 20.7638 17.6964 20.5832C18.3088 20.2185 18.9935 21.1833 18.9247 22.3125C18.8964 22.78 18.8947 23.9033 18.9216 24.8081C18.9652 26.2701 19.0499 26.3908 19.6799 25.8867C20.2791 25.4078 20.4732 25.4299 20.9263 26.027C21.2699 26.4792 21.8091 26.6471 22.4227 26.4924C23.1194 26.3173 23.3823 26.4414 23.3823 26.9458C23.3823 27.4754 23.6457 27.5774 24.4852 27.3747C25.5626 27.1142 25.5882 27.163 25.5882 29.4665C25.5882 30.7636 25.7969 31.9489 26.0514 32.1007C26.3611 32.2851 26.471 31.4857 26.3823 29.6862C26.2689 27.381 26.1238 26.9752 25.3676 26.8498C24.8823 26.769 24.2867 26.4613 24.0441 26.166C23.8014 25.8702 22.6597 25.4919 21.5073 25.3257L19.4117 25.0227V22.7264C19.4117 20.2053 18.5699 19.2312 17.0841 20.0319Z" fill="#00317A"/>
</svg>
