<svg width="17" height="20" viewBox="0 0 17 20" fill="none" xmlns="http://www.w3.org/2000/svg">
<path fill-rule="evenodd" clip-rule="evenodd" d="M1.03623 0.202934C0.82247 0.310638 0.512544 0.617949 0.347501 0.885832C0.0493455 1.36985 0.0472166 1.39956 0.0127804 5.64915C-0.0192766 9.60245 -0.00412453 9.9634 0.213387 10.4281C0.618608 11.2943 0.996781 11.5134 2.18539 11.5711L3.24065 11.6222V15.5307C3.24065 17.9477 3.29011 19.5463 3.37025 19.7197C3.58451 20.1831 3.92098 20.0425 4.60708 19.2027C4.96521 18.7642 5.29743 18.4063 5.34526 18.4073C5.39297 18.4084 5.70328 18.7671 6.03474 19.2046C6.36608 19.6421 6.72885 20 6.84067 20C6.9525 20 7.38715 19.5661 7.80639 19.0357L8.56887 18.0716L9.12924 18.9664C9.75786 19.9701 10.1762 20.2138 10.4934 19.7608C10.6022 19.6053 10.9045 19.1878 11.1651 18.8331L11.6387 18.188L12.3703 19.094C13.1379 20.0448 13.3574 20.1547 13.6987 19.7595C13.8782 19.5519 13.9029 19.1821 13.8803 17.0416C13.8659 15.6789 13.861 13.9023 13.8694 13.0936L13.8846 11.6232L14.8778 11.571C15.9988 11.512 16.3888 11.2785 16.7866 10.4281C17.0041 9.9634 17.0193 9.60245 16.9872 5.64915C16.9527 1.38492 16.9517 1.37159 16.6507 0.907286C16.0437 -0.0294333 16.2653 -0.00479059 8.48109 0.0014426C2.83831 0.0059363 1.34703 0.0463798 1.03623 0.202934ZM1.24622 1.53742C0.998283 1.90213 0.986637 2.09362 0.986637 5.79411C0.986637 9.4946 0.998283 9.68609 1.24622 10.0508C1.48189 10.3978 1.5852 10.4328 2.37323 10.4328H3.24065V9.12815C3.24065 8.07894 3.20471 7.82352 3.0572 7.82352C2.95627 7.82352 2.67527 7.62189 2.43283 7.37546C1.64882 6.57848 1.58483 5.26951 2.28557 4.36207C2.84657 3.63583 2.98294 3.61974 8.59179 3.61974C13.4454 3.61974 13.8575 3.63931 14.2622 3.8882C15.5817 4.69982 15.6003 6.97334 14.2931 7.67857L13.89 7.896L13.8873 9.16439L13.8846 10.4328H14.6894C15.4098 10.4328 15.5215 10.3926 15.7538 10.0508C16.0017 9.68609 16.0134 9.4946 16.0134 5.79411C16.0134 2.09362 16.0017 1.90213 15.7538 1.53742L15.4943 1.15545H8.5H1.50569L1.24622 1.53742ZM4.24243 11.23C4.24243 14.7779 4.282 17.6807 4.33033 17.6807C4.3788 17.6807 4.59856 17.4785 4.8187 17.2314C5.32072 16.6683 5.52671 16.7351 6.18338 17.6744C6.45887 18.0686 6.73699 18.3943 6.80148 18.3982C6.86597 18.4023 7.26343 17.9696 7.6848 17.4369C8.23603 16.7396 8.50914 16.494 8.65903 16.5606C8.77361 16.6115 9.13187 17.0475 9.45507 17.5293C9.7784 18.0112 10.0761 18.4052 10.1166 18.4049C10.1573 18.4046 10.4636 18.0132 10.7973 17.5351C11.1312 17.0571 11.505 16.666 11.6281 16.666C11.7512 16.666 12.0557 16.927 12.3048 17.2462L12.7576 17.8265L12.769 17.1738C12.7752 16.8147 12.7804 16.3253 12.7804 16.0861C12.7804 15.847 12.7752 13.2051 12.769 10.2153L12.7576 4.7794H8.5H4.24243V11.23ZM13.8418 5.03236C13.7381 5.22646 13.8875 6.5189 14.0134 6.5189C14.1397 6.5189 14.2602 6.13708 14.2602 5.73743C14.2602 5.33459 13.955 4.82028 13.8418 5.03236ZM2.86498 5.43172C2.78972 5.66075 2.78972 5.92747 2.86498 6.15651C3.05882 6.74678 3.24065 6.57138 3.24065 5.79411C3.24065 5.01685 3.05882 4.84145 2.86498 5.43172ZM5.01605 7.27674C5.05638 7.60609 5.05675 7.60609 7.43561 7.60609C9.73132 7.60609 9.81484 7.59594 9.81484 7.31617C9.81484 7.03756 9.72005 7.02466 7.39529 6.98683L4.97561 6.9474L5.01605 7.27674ZM5.08029 8.78648C5.03271 8.84156 4.99376 9.00769 4.99376 9.15583C4.99376 9.40907 5.11861 9.4227 7.09124 9.3853C9.09381 9.34732 9.18872 9.33239 9.18872 9.05567C9.18872 8.77938 9.09381 8.76387 7.17777 8.72603C6.07168 8.70429 5.12775 8.7314 5.08029 8.78648ZM5.0163 10.9039C5.05613 11.2276 5.07428 11.2303 7.43561 11.2658C8.74418 11.2854 9.89348 11.2431 9.98965 11.1718C10.0857 11.1003 10.1298 10.9374 10.0874 10.8098C10.0205 10.6076 9.68586 10.5777 7.49346 10.5777H4.97636L5.0163 10.9039ZM5.0163 12.6434C5.05575 12.9643 5.08893 12.9701 7.07346 13.0093C8.73166 13.0419 9.11785 13.0108 9.24432 12.8344C9.56214 12.391 9.25722 12.3172 7.1064 12.3172H4.97636L5.0163 12.6434Z" fill="#003E9B"/>
</svg>
