<svg width="13" height="16" viewBox="0 0 13 16" fill="none" xmlns="http://www.w3.org/2000/svg">
<path fill-rule="evenodd" clip-rule="evenodd" d="M5.5012 0.0721267C5.19189 0.121631 4.48335 0.493894 3.97656 0.98143C3.30295 1.62927 3.18647 2.01959 3.08801 2.61167C2.77926 4.46888 3.53182 5.83266 5.27437 6.57415C8.21312 7.82462 11.2892 4.66815 9.81058 1.91915C9.02142 0.451897 7.41782 -0.235442 5.5012 0.0721267ZM5.57105 0.779304C4.69551 1.15193 4.29071 1.52473 3.97656 2.24781C3.34865 3.69379 3.9487 5.2597 5.36968 5.88234C7.47783 6.8063 9.6471 5.33869 9.42733 3.13727C9.32274 2.09161 8.86128 1.4107 7.96604 0.98143C7.01934 0.527672 6.30449 0.467267 5.57105 0.779304ZM3.42705 7.65699C0.938801 8.38186 0.00417671 10.0734 8.97035e-05 13.8591C-0.0019538 15.6908 0.0286986 15.8772 0.322963 15.8232C0.607196 15.7708 0.66107 15.4601 0.751727 13.3526C0.863934 10.7429 1.06606 10.0525 1.97374 9.1791C2.56246 8.61293 3.54315 8.17186 4.21342 8.17186C4.46347 8.17186 5.03268 8.41313 5.47817 8.70801C6.45886 9.3571 6.63349 9.36568 7.48916 8.80702C8.79886 7.95204 8.81094 7.95044 9.93895 8.46424C11.7844 9.30474 12.2424 10.2587 12.3939 13.578C12.4738 15.3278 12.5565 15.8566 12.7501 15.8566C12.9496 15.8566 13.0016 15.3637 13.0001 13.4886C12.9985 11.3401 12.9553 11.0317 12.5342 10.1613C11.7729 8.58845 10.7246 7.77547 9.14347 7.53224C8.53599 7.43877 8.27647 7.50365 7.64187 7.90754C6.75109 8.47479 6.10107 8.43475 5.14452 7.75385L4.5493 7.33011L3.42705 7.65699ZM2.68433 11.0746C2.62896 11.2129 2.60816 12.0841 2.6377 13.0106C2.68098 14.3656 2.746 14.695 2.97023 14.695C3.20003 14.695 3.24889 14.369 3.24889 12.8333C3.24889 11.5033 3.18257 10.9505 3.01686 10.8973C2.88905 10.8563 2.7395 10.9361 2.68433 11.0746ZM9.84384 12.8185C9.84384 14.4467 9.89177 14.7843 10.1225 14.7843C10.3311 14.7843 10.4084 14.5484 10.4303 13.8461C10.4463 13.3301 10.4788 12.6666 10.5026 12.3717C10.5685 11.5512 10.3831 10.8526 10.0993 10.8526C9.89808 10.8526 9.84384 11.2695 9.84384 12.8185Z" fill="#003E9B"/>
</svg>
