<svg width="17" height="18" viewBox="0 0 17 18" fill="none" xmlns="http://www.w3.org/2000/svg">
<path opacity="0.45" fill-rule="evenodd" clip-rule="evenodd" d="M1.87087 0.160943C1.19146 0.442693 0.834401 1.04585 0.751989 2.05081C0.68969 2.81206 0.599446 3.04334 0.33708 3.11274C-0.12126 3.23424 -0.105774 3.96159 0.357906 4.08435C0.669577 4.16691 0.713898 4.33023 0.713898 5.39846C0.713898 6.4667 0.669577 6.63002 0.357906 6.71258C-0.119302 6.83894 -0.119302 7.56323 0.357906 7.6896C0.669577 7.77216 0.713898 7.93548 0.713898 9.00371C0.713898 10.0719 0.669577 10.2353 0.357906 10.3178C0.138792 10.3759 0.00191346 10.5637 0.00191346 10.8063C0.00191346 11.049 0.138792 11.2368 0.357906 11.2948C0.669577 11.3774 0.713898 11.5407 0.713898 12.609C0.713898 13.6772 0.669577 13.8405 0.357906 13.9231C-0.105774 14.0458 -0.12126 14.7732 0.33708 14.8947C0.600158 14.9643 0.68969 15.1961 0.753235 15.971C0.815889 16.7361 0.941733 17.0677 1.31179 17.4427L1.78953 17.9267L7.34799 17.9829C13.5011 18.0451 14.0693 17.9759 14.5116 17.1097C14.8685 16.4105 14.8265 10.0719 14.4641 9.94991C14.2914 9.89186 14.2416 10.6212 14.2416 13.2049C14.2416 16.2142 14.2088 16.5758 13.9014 16.9603L13.5615 17.3859H8.69506H3.82883V9.00371V0.621513L8.37574 0.566894C11.2878 0.531923 13.1015 0.581134 13.4201 0.703713C13.714 0.816917 14.0001 1.11615 14.1188 1.4345C14.3359 2.01746 14.5522 2.12256 14.7051 1.71931C14.871 1.28127 14.2852 0.401773 13.6864 0.190326C13.0209 -0.0445563 2.43031 -0.0708746 1.87087 0.160943ZM1.92231 0.786093C1.5802 0.958063 1.50634 1.15635 1.46148 2.02305C1.41876 2.84847 1.46202 3.05505 1.67775 3.05505C2.06293 3.05505 2.35378 3.6656 2.0939 3.92879C1.98105 4.04307 1.7922 4.13663 1.67454 4.13663C1.54621 4.13663 1.43549 4.48039 1.39865 4.99287C1.31018 6.22082 1.39918 6.61127 1.79184 6.7151C2.26923 6.84165 2.24271 7.53403 1.75339 7.71718C1.41787 7.843 1.36697 8.00578 1.3529 8.99488C1.33849 10.0123 1.378 10.1444 1.73738 10.2827C2.27243 10.4887 2.26282 11.1277 1.72153 11.3361C1.42517 11.4502 1.31819 11.6179 1.35059 11.9175C1.37569 12.1491 1.40292 12.6832 1.41111 13.1047C1.42321 13.7343 1.48676 13.8708 1.7671 13.8708C1.95471 13.8708 2.1441 13.9721 2.18806 14.0961C2.30305 14.4211 1.99191 14.9524 1.68665 14.9524C1.48996 14.9524 1.42588 15.1907 1.42588 15.9218C1.42588 17.0257 1.63432 17.297 2.52341 17.3504L3.11684 17.3859V9.00371V0.621513L2.7233 0.601324C2.50685 0.590328 2.14641 0.673429 1.92231 0.786093ZM14.5187 2.73473C14.3664 2.95501 14.2416 3.1971 14.2416 3.27281C14.2416 3.4273 16.2631 4.49715 16.5548 4.49715C16.6581 4.49715 16.8222 4.28444 16.9197 4.02451C17.1356 3.44947 16.9445 3.17132 15.9961 2.68137C15.1302 2.23396 14.8582 2.24369 14.5187 2.73473ZM11.6722 8.2805C10.4421 10.7703 9.43571 12.8669 9.43571 12.9397C9.43571 13.0553 11.6224 14.2313 11.8372 14.2313C12.0001 14.2313 16.3776 5.18395 16.2868 5.03488C16.235 4.95015 15.7337 4.65651 15.1727 4.38233C14.6117 4.10797 14.0978 3.85434 14.0307 3.81865C13.9636 3.78313 12.9024 5.7909 11.6722 8.2805ZM9.32143 14.1863C9.38213 14.5581 9.43268 15.0068 9.43375 15.1833C9.43713 15.7282 9.89529 15.721 10.7815 15.1624L11.6306 14.6272L10.5382 14.0687C9.93748 13.7616 9.39299 13.5103 9.32855 13.5103C9.26394 13.5103 9.26074 13.8146 9.32143 14.1863Z" fill="#003E9B"/>
</svg>
