<svg width="15" height="19" viewBox="0 0 15 19" fill="none" xmlns="http://www.w3.org/2000/svg">
<path fill-rule="evenodd" clip-rule="evenodd" d="M4.57081 0.16348C4.18816 0.413859 4.03915 0.657552 3.99033 1.11232L3.9459 1.52581H2.82674C2.2112 1.52581 1.53967 1.56047 1.33444 1.60276C0.888093 1.69481 0.409325 2.06137 0.167448 2.4963L0 2.79732V10.3231V17.8489L0.228654 18.2045C0.37041 18.425 0.598006 18.6438 0.827265 18.7801L1.19715 19H7.47485C13.6938 19 13.7553 18.9986 14.0547 18.8483C14.4137 18.6681 14.8113 18.1945 14.9202 17.8175C14.9717 17.6394 14.9987 15.0611 14.9992 10.2811C15.0001 2.01335 15.0422 2.57158 14.3748 1.99467C13.9121 1.59469 13.5831 1.52581 12.1347 1.52581H11.0156L10.9712 1.11232C10.9223 0.657552 10.7733 0.413859 10.3907 0.16348C10.1433 0.00159848 10.115 0 7.48074 0C4.84646 0 4.8182 0.00159848 4.57081 0.16348ZM5.17607 1.96176V2.83365H7.48074H9.78542V1.96176V1.08987H7.48074H5.17607V1.96176ZM6.61177 1.96176V2.47036H7.48074H8.34972V1.96176V1.45315H7.48074H6.61177V1.96176ZM1.32235 2.83365C1.18732 2.96349 1.17123 3.07582 1.17123 3.88762V4.79621L7.49963 4.77768L13.828 4.75908L13.8501 4.0325C13.8754 3.20181 13.8453 3.03186 13.6372 2.83184C13.5008 2.70062 13.3819 2.68834 12.2498 2.68834H11.0116L10.9606 3.01479C10.8948 3.43686 10.5441 3.8053 10.0983 3.92076C9.87322 3.97903 9.00984 3.99814 7.3043 3.98244C4.88417 3.96028 4.8306 3.95658 4.55804 3.79361C4.27052 3.6217 3.96706 3.13569 3.96706 2.84702C3.96706 2.6903 3.95172 2.68834 2.72027 2.68834C1.57421 2.68834 1.46124 2.70011 1.32235 2.83365ZM1.22163 5.93374C1.1939 5.96033 1.17123 8.60638 1.17123 11.8137V17.6453L1.37034 17.7958C1.56793 17.9453 1.61478 17.9465 7.48671 17.9465H13.404L13.616 17.7711L13.828 17.5958L13.8483 11.8001C13.8644 7.18258 13.849 5.99252 13.7727 5.94595C13.6581 5.87598 1.29417 5.86392 1.22163 5.93374ZM3.44364 8.40178C3.35749 8.50706 3.28699 8.64976 3.28699 8.71893C3.28699 8.7881 3.35749 8.9308 3.44364 9.03608L3.6002 9.22753H7.39642C11.1124 9.22753 11.1961 9.22441 11.358 9.07938C11.5661 8.89294 11.5711 8.57768 11.3693 8.36937L11.2152 8.21033H7.40775H3.6002L3.44364 8.40178ZM3.69632 11.6307C3.47144 11.6935 3.28699 11.9396 3.28699 12.1769C3.28699 12.2368 3.37049 12.366 3.4725 12.4641L3.65793 12.6424H7.39158C11.0543 12.6424 11.1289 12.6396 11.3243 12.4918C11.664 12.2349 11.5634 11.7762 11.1359 11.6329C10.8422 11.5344 4.04829 11.5325 3.69632 11.6307ZM3.60965 15.0962C3.51693 15.1653 3.41961 15.3259 3.39339 15.4531C3.3547 15.6405 3.38251 15.7199 3.5396 15.8709L3.7335 16.0574H7.48074H11.228L11.4134 15.879C11.5154 15.7809 11.5989 15.616 11.5989 15.5124C11.5989 15.4089 11.5154 15.244 11.4134 15.1459L11.228 14.9675L7.50303 14.9691C4.09076 14.9706 3.76402 14.9812 3.60965 15.0962Z" fill="#003E9B"/>
</svg>
