<svg width="17" height="19" viewBox="0 0 17 19" fill="none" xmlns="http://www.w3.org/2000/svg">
<path fill-rule="evenodd" clip-rule="evenodd" d="M2.17527 0.0300177C1.35161 0.197189 0.686785 0.642525 0.311429 1.27834L0.0356175 1.74562L0.00678305 10.0769C-0.00900962 14.6591 0.00372639 18.5018 0.035108 18.6161C0.0664895 18.7305 0.204956 18.87 0.34281 18.9262C0.564519 19.0164 0.675883 18.9792 1.30677 18.6044C1.69904 18.3713 2.06788 18.1805 2.12626 18.1805C2.18475 18.1805 2.54013 18.3649 2.9161 18.5903C3.29196 18.8156 3.65051 19 3.71286 19C3.77522 19 4.14039 18.8156 4.5243 18.5903C4.90822 18.3649 5.26146 18.1805 5.30915 18.1805C5.35683 18.1805 5.65709 18.3387 5.97621 18.5319C6.8445 19.0577 6.87965 19.059 7.68436 18.5932C8.07276 18.3684 8.4363 18.1844 8.49234 18.1844C8.54837 18.1844 8.91191 18.3684 9.30031 18.5932C10.105 19.059 10.1402 19.0577 11.0085 18.5319C11.3276 18.3387 11.6367 18.1805 11.6952 18.1805C11.7538 18.1805 12.103 18.3649 12.4714 18.5903C13.2038 19.0383 13.2996 19.0623 13.5928 18.8708C13.7839 18.746 13.7914 18.5696 13.8184 13.6353L13.8465 8.52901H15.2546C16.4894 8.52901 16.6835 8.50852 16.8314 8.36247C16.9818 8.21406 17 7.84029 17 4.91606C17 2.70622 16.9622 1.53529 16.8841 1.32669C16.7087 0.858683 16.3231 0.446672 15.8478 0.219679L15.4207 0.0156314L8.89989 0.00215561C5.31342 -0.00531066 2.28735 0.00725468 2.17527 0.0300177ZM1.81377 1.17682C1.06285 1.62908 1.11135 1.05135 1.10544 9.626C1.10249 13.8553 1.10127 17.3706 1.10279 17.438C1.10463 17.524 1.23983 17.4901 1.5566 17.3242C1.8048 17.1943 2.06839 17.088 2.14246 17.0881C2.21653 17.0882 2.59087 17.2726 2.97438 17.4978C3.35789 17.7231 3.69167 17.9074 3.71623 17.9074C3.74078 17.9074 4.06845 17.723 4.44442 17.4976C4.82029 17.2723 5.20909 17.0879 5.30843 17.0879C5.40777 17.0879 5.80412 17.2751 6.18915 17.5039L6.88913 17.9198L7.61538 17.5039C8.01479 17.2751 8.4094 17.0879 8.49234 17.0879C8.57527 17.0879 8.96989 17.2751 9.36929 17.5039L10.0955 17.9198L10.7955 17.5039C11.1806 17.2751 11.5772 17.0879 11.677 17.0879C11.7767 17.0879 12.0269 17.1903 12.2332 17.3155C12.4393 17.4407 12.6334 17.5432 12.6644 17.5432C12.6953 17.5432 12.7227 13.9683 12.7252 9.59887C12.7287 3.20264 12.7563 1.58801 12.866 1.31312L13.0023 0.971679H7.5784H2.15448L1.81377 1.17682ZM14.1393 1.23782L13.8415 1.50397V4.56123V7.61848H14.8603H15.8792V4.56123V1.50397L15.5814 1.23782C15.3478 1.02913 15.1923 0.971679 14.8603 0.971679C14.5284 0.971679 14.3729 1.02913 14.1393 1.23782ZM3.30949 3.07635C3.22645 3.18224 3.18447 3.33585 3.21606 3.41779C3.3478 3.75888 3.5473 3.79429 5.33747 3.79429C6.90135 3.79429 7.10299 3.77681 7.25389 3.62776C7.45196 3.43218 7.47274 3.14719 7.30024 2.99304C7.21405 2.91601 6.62911 2.88377 5.31923 2.88377C3.5423 2.88377 3.45376 2.89224 3.30949 3.07635ZM3.28667 5.93402C3.1321 6.1449 3.1321 6.1784 3.28667 6.38928L3.45356 6.61691H6.89503C10.5721 6.61691 10.581 6.61582 10.581 6.16165C10.581 5.70748 10.5721 5.70639 6.89503 5.70639H3.45356L3.28667 5.93402ZM3.40465 8.64992C3.18702 8.79215 3.15829 9.2434 3.35972 9.3574C3.58805 9.48669 10.3126 9.46092 10.4588 9.33027C10.6525 9.15717 10.6073 8.73005 10.384 8.62325C10.068 8.47219 3.6391 8.49668 3.40465 8.64992ZM3.47434 11.4455C3.25875 11.523 3.19537 11.6699 3.2401 11.989C3.28809 12.3323 3.49656 12.3532 6.85897 12.3532C10.4102 12.3532 10.581 12.3302 10.581 11.8524C10.581 11.3747 10.4067 11.3512 6.91582 11.3574C5.14908 11.3605 3.60038 11.4002 3.47434 11.4455Z" fill="#003E9B"/>
</svg>
