<svg width="63" height="83" viewBox="0 0 63 83" fill="none" xmlns="http://www.w3.org/2000/svg">
<path fill-rule="evenodd" clip-rule="evenodd" d="M57.5775 0.331357C52.9096 0.634035 52.2351 0.933858 50.1218 3.65428C48.844 5.2991 47.2253 8.62431 46.5253 11.044L45.2518 15.4441L45.2612 7.79365L45.2706 0.144204L39.5487 0.128255L33.8267 0.112306L33.796 7.35509C33.7654 14.5649 33.7616 14.5839 32.9069 11.5984C30.1488 1.95823 27.6628 0.139082 17.2058 0.109935C8.17117 0.0847519 6.05611 1.07088 3.19429 6.64441C0.234692 12.4085 0.0209213 14.7546 0.000947237 41.695C-0.0194521 68.9821 0.222808 71.3994 3.55519 77.149C6.32529 81.929 8.52507 82.9601 15.9968 82.981L22.8261 83L22.839 72.5104L22.8518 62.0207L17.1299 62.0048L11.408 61.9888L11.4331 41.5091L11.4582 21.0293L22.6296 21.0604L33.801 21.0916L33.7759 41.5713L33.7507 62.0511L39.4727 62.0671L45.1946 62.083L45.2197 41.6032L45.2449 21.1235L53.964 21.1478L62.6831 21.1721L62.6961 10.5855L62.7091 0L57.5775 0.331357Z" fill="#42669D"/>
</svg>
